<svg width="124" height="71" viewBox="0 0 124 71" fill="none" xmlns="http://www.w3.org/2000/svg">
<path d="M46.856 24.152C46.856 27.544 46.056 30.744 44.456 33.752C42.856 36.76 40.296 39.224 36.776 41.144C33.256 43 28.744 43.928 23.24 43.928H11.144V71H0.2V4.27999H23.24C28.36 4.27999 32.68 5.17599 36.2 6.96799C39.784 8.696 42.44 11.064 44.168 14.072C45.96 17.08 46.856 20.44 46.856 24.152ZM23.24 35C27.4 35 30.504 34.072 32.552 32.216C34.6 30.296 35.624 27.608 35.624 24.152C35.624 16.856 31.496 13.208 23.24 13.208H11.144V35H23.24ZM118.254 10.424H86.0937V29.528C87.4377 27.736 89.4217 26.232 92.0457 25.016C94.7338 23.8 97.5818 23.192 100.59 23.192C105.966 23.192 110.318 24.344 113.646 26.648C117.038 28.952 119.438 31.864 120.846 35.384C122.318 38.904 123.054 42.616 123.054 46.52C123.054 51.256 122.126 55.48 120.27 59.192C118.478 62.84 115.758 65.72 112.11 67.832C108.526 69.944 104.11 71 98.8617 71C91.8857 71 86.2857 69.272 82.0617 65.816C77.8377 62.36 75.3097 57.784 74.4777 52.088H85.1337C85.8377 55.096 87.4057 57.496 89.8377 59.288C92.2698 61.016 95.3098 61.88 98.9578 61.88C103.502 61.88 106.894 60.504 109.134 57.752C111.438 55 112.59 51.352 112.59 46.808C112.59 42.2 111.438 38.68 109.134 36.248C106.83 33.752 103.438 32.504 98.9578 32.504C95.8217 32.504 93.1657 33.304 90.9897 34.904C88.8777 36.44 87.3418 38.552 86.3818 41.24H76.0137V0.823999H118.254V10.424Z" fill="white"/>
</svg>
