<svg width="714" height="72" viewBox="0 0 714 72" fill="none" xmlns="http://www.w3.org/2000/svg">
<path d="M46.856 24.152C46.856 27.544 46.056 30.744 44.456 33.752C42.856 36.76 40.296 39.224 36.776 41.144C33.256 43 28.744 43.928 23.24 43.928H11.144V71H0.2V4.27999H23.24C28.36 4.27999 32.68 5.17599 36.2 6.96799C39.784 8.696 42.44 11.064 44.168 14.072C45.96 17.08 46.856 20.44 46.856 24.152ZM23.24 35C27.4 35 30.504 34.072 32.552 32.216C34.6 30.296 35.624 27.608 35.624 24.152C35.624 16.856 31.496 13.208 23.24 13.208H11.144V35H23.24ZM118.254 10.424H86.0937V29.528C87.4377 27.736 89.4217 26.232 92.0457 25.016C94.7338 23.8 97.5818 23.192 100.59 23.192C105.966 23.192 110.318 24.344 113.646 26.648C117.038 28.952 119.438 31.864 120.846 35.384C122.318 38.904 123.054 42.616 123.054 46.52C123.054 51.256 122.126 55.48 120.27 59.192C118.478 62.84 115.758 65.72 112.11 67.832C108.526 69.944 104.11 71 98.8617 71C91.8857 71 86.2857 69.272 82.0617 65.816C77.8377 62.36 75.3097 57.784 74.4777 52.088H85.1337C85.8377 55.096 87.4057 57.496 89.8377 59.288C92.2698 61.016 95.3098 61.88 98.9578 61.88C103.502 61.88 106.894 60.504 109.134 57.752C111.438 55 112.59 51.352 112.59 46.808C112.59 42.2 111.438 38.68 109.134 36.248C106.83 33.752 103.438 32.504 98.9578 32.504C95.8217 32.504 93.1657 33.304 90.9897 34.904C88.8777 36.44 87.3418 38.552 86.3818 41.24H76.0137V0.823999H118.254V10.424ZM242.04 24.152C242.04 27.544 241.24 30.744 239.64 33.752C238.04 36.76 235.48 39.224 231.96 41.144C228.44 43 223.928 43.928 218.424 43.928H206.328V71H195.384V4.27999H218.424C223.544 4.27999 227.864 5.17599 231.384 6.96799C234.968 8.696 237.624 11.064 239.352 14.072C241.144 17.08 242.04 20.44 242.04 24.152ZM218.424 35C222.584 35 225.688 34.072 227.736 32.216C229.784 30.296 230.808 27.608 230.808 24.152C230.808 16.856 226.68 13.208 218.424 13.208H206.328V35H218.424ZM304.413 71L289.053 44.312H280.701V71H269.757V4.27999H292.797C297.917 4.27999 302.237 5.17599 305.757 6.96799C309.341 8.75999 311.997 11.16 313.726 14.168C315.517 17.176 316.413 20.536 316.413 24.248C316.413 28.6 315.133 32.568 312.573 36.152C310.077 39.672 306.205 42.072 300.957 43.352L317.469 71H304.413ZM280.701 35.576H292.797C296.893 35.576 299.965 34.552 302.013 32.504C304.125 30.456 305.181 27.704 305.181 24.248C305.181 20.792 304.157 18.104 302.109 16.184C300.061 14.2 296.957 13.208 292.797 13.208H280.701V35.576ZM378.126 71.672C371.918 71.672 366.19 70.232 360.942 67.352C355.758 64.408 351.63 60.344 348.558 55.16C345.55 49.912 344.046 44.024 344.046 37.496C344.046 30.968 345.55 25.112 348.558 19.928C351.63 14.744 355.758 10.712 360.942 7.832C366.19 4.88799 371.918 3.41599 378.126 3.41599C384.398 3.41599 390.126 4.88799 395.31 7.832C400.558 10.712 404.686 14.744 407.694 19.928C410.702 25.112 412.206 30.968 412.206 37.496C412.206 44.024 410.702 49.912 407.694 55.16C404.686 60.344 400.558 64.408 395.31 67.352C390.126 70.232 384.398 71.672 378.126 71.672ZM378.126 62.168C382.542 62.168 386.478 61.176 389.934 59.192C393.39 57.144 396.078 54.264 397.998 50.552C399.982 46.776 400.974 42.424 400.974 37.496C400.974 32.568 399.982 28.248 397.998 24.536C396.078 20.824 393.39 17.976 389.934 15.992C386.478 14.008 382.542 13.016 378.126 13.016C373.71 13.016 369.774 14.008 366.318 15.992C362.862 17.976 360.142 20.824 358.158 24.536C356.238 28.248 355.278 32.568 355.278 37.496C355.278 42.424 356.238 46.776 358.158 50.552C360.142 54.264 362.862 57.144 366.318 59.192C369.774 61.176 373.71 62.168 378.126 62.168ZM476.639 4.27999V52.376C476.639 58.328 474.815 63.032 471.167 66.488C467.583 69.944 462.847 71.672 456.959 71.672C451.071 71.672 446.303 69.944 442.655 66.488C439.071 63.032 437.279 58.328 437.279 52.376H448.319C448.383 55.32 449.119 57.656 450.527 59.384C451.999 61.112 454.143 61.976 456.959 61.976C459.775 61.976 461.919 61.112 463.391 59.384C464.863 57.592 465.599 55.256 465.599 52.376V4.27999H476.639ZM522.666 13.112V32.696H545.706V41.624H522.666V62.072H548.586V71H511.722V4.184H548.586V13.112H522.666ZM575.698 37.496C575.698 30.968 577.202 25.112 580.21 19.928C583.282 14.744 587.41 10.712 592.594 7.832C597.842 4.88799 603.57 3.41599 609.778 3.41599C616.882 3.41599 623.186 5.17599 628.69 8.696C634.258 12.152 638.29 17.08 640.786 23.48H627.634C625.906 19.96 623.506 17.336 620.434 15.608C617.362 13.88 613.81 13.016 609.778 13.016C605.362 13.016 601.426 14.008 597.97 15.992C594.514 17.976 591.794 20.824 589.81 24.536C587.89 28.248 586.93 32.568 586.93 37.496C586.93 42.424 587.89 46.744 589.81 50.456C591.794 54.168 594.514 57.048 597.97 59.096C601.426 61.08 605.362 62.072 609.778 62.072C613.81 62.072 617.362 61.208 620.434 59.48C623.506 57.752 625.906 55.128 627.634 51.608H640.786C638.29 58.008 634.258 62.936 628.69 66.392C623.186 69.848 616.882 71.576 609.778 71.576C603.506 71.576 597.778 70.136 592.594 67.256C587.41 64.312 583.282 60.248 580.21 55.064C577.202 49.88 575.698 44.024 575.698 37.496ZM713.98 4.27999V13.208H696.22V71H685.276V13.208H667.42V4.27999H713.98Z" fill="white"/>
</svg>
